# xmcd CD database file
#
# Track frame offsets:
#	150
#	17106
#	36744
#	53700
#
# Disc length: 973 seconds
#
# Revision: 0
# Processed by: cddbd v1.5.1PL2 Copyright (c) Steve Scherf et al.
# Submitted via: CDex 1.60beta1
#
DISCID=3103cb04
DTITLE=milktub - Rock'n'Roll Travel
DYEAR=2006
DGENRE=General Rock
TTITLE0=Rock'n'Roll Travel
TTITLE1=秘密
TTITLE2=Rock'n'Roll Travel (off vocal)
TTITLE3=秘密 (off vocal)
EXTD=YEAR: 2006
EXTT0=
EXTT1=
EXTT2=
EXTT3=
PLAYORDER=
